# xmcd CD database file
#
# Track frame offsets:
#	150
#	31655
#	59025
#	94965
#	137937
#	187915
#	218657
#
# Disc length: 3301 seconds
#
# Revision: 0
# Processed by: cddbd v1.5.2PL0 Copyright (c) Steve Scherf et al.
# Submitted via: CDex 1.51
#
DISCID=610ce307
DTITLE=Javon Jackson and Billy Pierce Quintet - Burnin'
DYEAR=1997
DGENRE=Jazz
TTITLE0=So The Story Goes
TTITLE1=Mr. Glenn-Roy
TTITLE2=Dolo
TTITLE3=Cocktails For Two
TTITLE4=Homestretch
TTITLE5=Ugly Beauty
TTITLE6=Not Yet
EXTD=YEAR: 1997
EXTT0=
EXTT1=
EXTT2=
EXTT3=
EXTT4=
EXTT5=
EXTT6=
PLAYORDER=
